<svg width="56" height="72" viewBox="0 0 56 72" fill="none" xmlns="http://www.w3.org/2000/svg">
<path d="M43.5625 12.8125H53.8125V23.0625H43.5625V12.8125ZM43.5625 28.1875H53.8125V38.4375H43.5625V28.1875ZM28.1875 12.8125H38.4375V23.0625H28.1875V12.8125ZM28.1875 28.1875H38.4375V38.4375H28.1875V28.1875Z" fill="#F3DF6B" stroke="#0B2131" style="fill:#F3DF6B;fill:color(display-p3 0.9542 0.8734 0.4214);fill-opacity:1;stroke:#0B2131;stroke:color(display-p3 0.0431 0.1294 0.1922);stroke-opacity:1;" stroke-width="3"/>
<path d="M21.7812 61.5C23.9041 61.5 25.625 59.7791 25.625 57.6562C25.625 55.5334 23.9041 53.8125 21.7812 53.8125C19.6584 53.8125 17.9375 55.5334 17.9375 57.6562C17.9375 59.7791 19.6584 61.5 21.7812 61.5Z" fill="#0B2131" style="fill:#0B2131;fill:color(display-p3 0.0431 0.1294 0.1922);fill-opacity:1;"/>
<path d="M38.4375 71.75H5.125C3.76618 71.7486 2.46341 71.2083 1.50258 70.2474C0.541747 69.2866 0.00135678 67.9838 0 66.625V5.125C0.00135678 3.76618 0.541747 2.46341 1.50258 1.50258C2.46341 0.541746 3.76618 0.00135678 5.125 0H38.4375V5.125H5.125V66.625H38.4375V46.125H43.5625V66.625C43.5611 67.9838 43.0208 69.2866 42.0599 70.2474C41.0991 71.2083 39.7963 71.7486 38.4375 71.75Z" fill="#0B2131" style="fill:#0B2131;fill:color(display-p3 0.0431 0.1294 0.1922);fill-opacity:1;"/>
</svg>
