<svg width="272" height="40" viewBox="0 0 272 40" fill="none" xmlns="http://www.w3.org/2000/svg">
<path d="M23.4478 0.00885771C23.4168 0.610594 23.9257 0.404827 24.2044 0.480045C31.7682 2.47108 36.7966 7.16772 38.9182 14.685C42.0751 25.8813 34.9361 37.2877 23.5098 39.5398C23.2288 39.5951 22.9125 39.5399 22.6868 39.7766C22.6625 39.8032 22.6226 39.8584 22.6293 39.8651C22.6778 39.9135 22.7295 39.9586 22.7841 40H17.0322C17.059 39.9758 17.0841 39.95 17.1075 39.9226C17.1252 39.8978 17.14 39.8711 17.1517 39.8429C16.9636 39.7414 16.7657 39.6592 16.561 39.5974C7.93318 37.8276 2.58171 32.6397 0.411478 24.1336C0.362808 23.9433 0.511034 23.4855 0 23.6514V16.1297C0.0243349 16.1562 0.0442605 16.1872 0.0708077 16.2115C0.0973548 16.2359 0.132741 16.2668 0.143803 16.2602C0.365029 16.1318 0.365036 15.9062 0.426979 15.6938C2.47406 7.55119 7.57334 2.45706 15.7248 0.411451C15.8907 0.369418 16.3885 0.515458 16.1473 0L23.4478 0.00885771ZM27.744 26.7087C28.2599 26.6778 28.7773 26.6816 29.2926 26.7198C30.266 26.8525 30.3656 26.3768 30.2859 25.5716C30.0315 23.0208 28.7374 21.1846 26.5384 19.948C25.0208 19.0963 23.3814 18.5609 21.7045 18.1273C19.8551 17.6517 17.9769 17.2734 16.2535 16.4018C15.1695 15.8553 14.3642 15.1098 14.3554 13.8001C14.3554 13.3576 14.1585 13.2228 13.7559 13.225C12.5037 13.225 11.2516 13.2471 9.99503 13.225C9.44639 13.2139 9.31808 13.4616 9.33135 13.9572C9.35347 16.3331 10.1079 18.353 12.1033 19.7843C13.747 20.9635 15.6429 21.5541 17.5588 22.0872C19.3618 22.585 21.2201 22.897 22.9434 23.6691C23.8682 24.0828 24.8858 24.554 25.0694 25.596C25.2752 26.7419 25.8968 26.7883 26.7596 26.7175C27.0804 26.6755 27.4122 26.7087 27.744 26.7087Z" fill="black" style="fill:black;fill-opacity:1;"/>
<path d="M271.186 34.9184C269.529 34.9184 267.868 34.8808 266.213 34.9361C265.854 34.9729 265.492 34.9097 265.166 34.7535C264.84 34.5974 264.564 34.3543 264.368 34.0512C261.592 30.3368 258.747 26.6712 255.962 22.9678C255.453 22.3041 255.116 22.1072 254.481 22.8549C253.596 23.8908 252.645 24.8692 251.634 25.784C250.997 26.3659 250.811 26.9963 250.829 27.8215C250.875 29.8457 250.803 31.8721 250.864 33.8941C250.889 34.7458 250.597 34.9848 249.789 34.9295C248.87 34.8598 247.947 34.8598 247.028 34.9295C246.035 35.0158 245.725 34.7082 245.73 33.6685C245.776 25.607 245.756 17.5455 245.756 9.48401C245.756 8.71193 245.794 7.93543 245.745 7.16556C245.701 6.47755 245.984 6.25853 246.63 6.28066C247.661 6.31384 248.696 6.33154 249.727 6.28066C250.57 6.2342 250.871 6.4864 250.86 7.38679C250.811 11.3246 250.84 15.2647 250.84 19.2025V20.5652L256.557 14.5655C259.018 11.9801 261.479 9.39255 263.939 6.80272C264.142 6.58149 264.333 6.32705 264.653 6.32484C266.556 6.31378 268.459 6.32484 270.666 6.32484C269.478 7.56371 268.507 8.59248 267.521 9.60791C264.826 12.3806 262.126 15.1474 259.421 17.9083C258.99 18.3508 258.758 18.6406 259.24 19.2644C263.052 24.1801 266.822 29.1311 270.609 34.0689C270.753 34.2569 270.85 34.5512 271.189 34.4848L271.186 34.9184Z" fill="black" style="fill:black;fill-opacity:1;"/>
<path d="M174.523 20.8044C174.523 12.3602 181.019 6.00879 189.655 6.00879C198.197 6.00879 204.639 12.2628 204.723 20.6341C204.807 29.0053 198.173 35.4894 189.492 35.485C180.952 35.4805 174.523 29.1756 174.523 20.8044ZM199.327 20.8044C199.327 15.0945 195.064 10.6545 189.578 10.6501C184.092 10.6457 179.87 14.9928 179.87 20.6805C179.87 26.4191 184.089 30.8016 189.62 30.8149C195.151 30.8282 199.327 26.521 199.327 20.8067V20.8044Z" fill="black" style="fill:black;fill-opacity:1;"/>
<path d="M84.2386 20.7336C84.2386 16.3887 84.2608 12.0438 84.2209 7.6989C84.2209 6.77639 84.4068 6.42021 85.4288 6.42685C91.8046 6.47257 98.1803 6.47257 104.556 6.42685C105.505 6.42685 105.804 6.74535 105.704 7.63247C105.583 8.71648 106.173 10.1058 105.437 10.8115C104.755 11.4641 103.395 11.0018 102.339 11.0084C98.4325 11.0306 94.5234 11.0548 90.6144 10.9929C89.5724 10.9774 89.3003 11.3115 89.3468 12.3004C89.422 13.9551 89.4198 15.6188 89.3468 17.2691C89.3069 18.1806 89.6498 18.3752 90.4816 18.3575C94.4991 18.3199 98.5166 18.3576 102.534 18.3222C103.45 18.3222 103.917 18.4748 103.797 19.5145C103.678 20.5543 104.224 21.948 103.589 22.6117C102.895 23.3573 101.494 22.8551 100.406 22.8684C97.2003 22.9038 93.9903 22.8794 90.7869 22.8817C89.3711 22.8817 89.3711 22.8817 89.3689 24.3462C89.3689 25.9302 89.433 27.5163 89.3468 29.0959C89.287 30.171 89.5459 30.5383 90.7162 30.5184C95.3619 30.4432 100.008 30.5184 104.653 30.4631C105.64 30.452 105.981 30.7374 105.881 31.6997C105.817 32.4357 105.817 33.176 105.881 33.912C105.945 34.7659 105.647 35.0646 104.762 35.0557C101.078 35.0137 97.3906 35.038 93.7005 35.038C90.8998 35.038 88.099 35.0137 85.2939 35.0513C84.4798 35.0513 84.2165 34.8102 84.2232 33.9806C84.2586 29.5693 84.2386 25.1515 84.2386 20.7336Z" fill="black" style="fill:black;fill-opacity:1;"/>
<path d="M63.1292 6.00343C66.5051 5.97683 69.804 7.0115 72.5601 8.96126C73.195 9.40371 73.414 9.76424 72.8477 10.439C72.2624 11.1492 71.7286 11.9004 71.2504 12.6867C70.8434 13.3504 70.4872 13.3659 69.8545 12.93C67.4586 11.2863 64.857 10.262 61.8749 10.6005C60.7842 10.7244 59.7953 11.1027 59.0409 11.9278C57.6826 13.43 58.0852 15.6578 59.9258 16.7086C61.3793 17.536 63.0031 17.912 64.6114 18.3147C66.2272 18.6782 67.8083 19.1815 69.3368 19.819C72.7592 21.3388 74.3498 23.6794 74.2392 27.0641C74.1198 30.6989 72.2482 33.4798 68.8435 34.6368C63.8526 36.3359 59.1095 35.4951 54.6407 32.8559C51.7758 31.1591 51.8024 31.1149 53.8819 28.6283L54.0213 28.4579C55.0235 27.2567 55.0257 27.2545 56.2778 28.1991C58.8706 30.157 61.751 31.1967 65.034 30.9157C67.3281 30.7166 68.8391 29.5552 69.0846 27.8318C69.2727 26.5045 68.8634 25.4404 67.6909 24.717C66.4188 23.9294 64.9964 23.5489 63.5673 23.1905C61.524 22.7177 59.5198 22.0897 57.572 21.3122C51.5989 18.819 52.0679 10.7332 56.5256 7.81742C58.3286 6.65377 60.4656 6.00785 63.1292 6.00343Z" fill="black" style="fill:black;fill-opacity:1;"/>
<path d="M128.657 6.0084C132.639 5.97743 136.178 7.16542 139.209 9.82899C139.727 10.2869 139.844 10.6054 139.317 11.1408C138.568 11.9014 137.861 12.7027 137.2 13.5411C136.758 14.1185 136.422 14.0942 135.888 13.6274C134.256 12.2049 132.413 11.1785 130.234 10.8024C123.911 9.71614 118.586 14.7335 119.111 21.492C119.484 26.297 122.312 29.6951 126.486 30.5933C130.061 31.3632 133.203 30.3256 135.871 27.8943C136.561 27.2638 136.992 27.1599 137.618 27.9364C138.215 28.638 138.865 29.2919 139.563 29.892C140.005 30.2947 139.921 30.5557 139.55 30.9517C135.391 35.4559 127.758 36.8408 121.987 34.113C119.172 32.7723 116.86 30.5649 115.392 27.8146C113.923 25.0643 113.374 21.9157 113.826 18.8307C114.98 11.0479 120.807 6.0084 128.657 6.0084Z" fill="black" style="fill:black;fill-opacity:1;"/>
<path d="M211.123 20.853C211.123 11.7185 218.744 5.02854 227.793 6.05282C231.122 6.43111 234.06 7.57935 236.595 9.77392C237.142 10.2451 237.305 10.5925 236.721 11.1743C235.969 11.9322 235.263 12.7352 234.609 13.579C234.182 14.1254 233.89 14.1121 233.381 13.6653C231.334 11.8578 228.987 10.7074 226.202 10.6566C221.22 10.5636 217.2 14.1962 216.581 19.3375C215.935 24.7111 219.072 29.5626 223.976 30.6045C227.516 31.3567 230.613 30.3237 233.268 27.9366C234.027 27.2531 234.522 27.1025 235.164 28.0273C235.538 28.5626 236.082 28.9786 236.551 29.4498C237.544 30.4453 237.558 30.4608 236.485 31.4408C231.98 35.538 226.711 36.4737 221.052 34.7017C215.532 32.9739 212.406 28.9498 211.34 23.3041C211.293 23.051 211.261 22.7954 211.243 22.5386C211.196 21.9502 211.159 21.3662 211.123 20.853Z" fill="black" style="fill:black;fill-opacity:1;"/>
<path d="M149.75 20.6028C149.75 16.1782 149.773 11.767 149.733 7.35132C149.733 6.52393 149.967 6.24517 150.788 6.28278C151.781 6.34473 152.777 6.34473 153.77 6.28278C154.679 6.22083 154.859 6.60797 154.854 7.43536C154.825 14.5389 154.834 21.6448 154.841 28.7506C154.841 30.4828 154.64 30.2749 156.372 30.2793C160.537 30.2793 164.701 30.3036 168.864 30.266C169.685 30.266 170.013 30.4872 169.924 31.3212C169.8 32.4783 170.424 33.9759 169.661 34.7148C168.955 35.3962 167.482 34.9118 166.342 34.9162C161.328 34.9339 156.314 34.9339 151.299 34.9162C149.516 34.9162 149.75 35.1374 149.75 33.3034C149.744 29.0714 149.75 24.8371 149.75 20.6028Z" fill="black" style="fill:black;fill-opacity:1;"/>
</svg>
